<svg xmlns="http://www.w3.org/2000/svg" viewBox="0 0 512.001 512.001" style="enable-background:new 0 0 512.001 512.001" xml:space="preserve"><path style="fill:#eebf00" d="M151.769 255.837c-34.809 0-63.028-28.219-63.028-63.028s28.219-63.028 63.028-63.028h25.188v24.55h-25.188c-21.251 0-38.478 17.227-38.478 38.478s17.227 38.478 38.478 38.478h25.188v24.55h-25.188z"/><path style="fill:#cca400" d="M358.688 255.837c34.809 0 63.028-28.219 63.028-63.028s-28.219-63.028-63.028-63.028h-20.601v24.55h20.601c21.251 0 38.478 17.227 38.478 38.478s-17.227 38.478-38.478 38.478h-20.601v24.55h20.601z"/><path style="fill:#ffcd00" d="M258.838 70.531H161.71c-5.49 0-9.941 4.384-9.941 9.79v171.076c4.334 40.438 32.787 74.553 71.28 86.02 2.949.879 4.952 3.574 4.941 6.608l-.204 55.571c-.029 7.653-6.352 13.834-14.123 13.805l-15.982-.058c-7.293-.027-13.282 5.828-13.309 13.009-.028 7.182 5.917 13.08 13.21 13.108l54.035.199h6.01l1.211-369.128z"/><path style="fill:#ffe477" d="M204.871 314.356a7.648 7.648 0 0 1-3.944-1.095 81.736 81.736 0 0 1-17.936-14.585 7.68 7.68 0 0 1 11.274-10.432 66.298 66.298 0 0 0 14.564 11.845 7.68 7.68 0 0 1-3.958 14.267zm-27.914-29.94a7.68 7.68 0 0 1-6.844-4.185 81.23 81.23 0 0 1-8.482-28.426 7.716 7.716 0 0 1-.044-.818V125.683a7.68 7.68 0 0 1 7.68-7.68 7.68 7.68 0 0 1 7.68 7.68v124.882a65.934 65.934 0 0 0 6.843 22.675 7.68 7.68 0 0 1-6.833 11.176z"/><path style="fill:#eebf00" d="m254.742 439.657 58.131-.199c7.293-.027 13.238-5.925 13.21-13.108-.028-7.182-6.017-13.036-13.309-13.009l-15.982.058c-7.771.029-14.094-6.152-14.123-13.805l-.204-55.571c-.011-3.034 1.992-5.729 4.941-6.608 38.494-11.468 66.946-45.582 71.28-86.02V80.321c0-5.406-4.451-9.79-9.941-9.79h-94.004l.001 369.126z"/><path style="fill:#eebf00" d="M303.982 201.208c-.1 26.356-21.877 47.642-48.64 47.544s-48.377-21.544-48.277-47.9 21.877-47.642 48.64-47.544c26.763.098 48.377 21.544 48.277 47.9z"/><path style="fill:#4bcdb2" d="M302.602 191.805c-.1 26.356-21.877 47.642-48.64 47.544-26.763-.098-48.377-21.544-48.277-47.9s21.877-47.642 48.64-47.544c26.763.098 48.377 21.544 48.277 47.9z"/><path style="fill:#4bcdb2" d="M283.23 229.945v73.054c0 2.761-2.981 4.53-5.46 3.243l-20.866-10.84a3.776 3.776 0 0 0-3.473 0l-20.866 10.84c-2.479 1.288-5.46-.482-5.46-3.243v-73.054"/><path style="fill:#aa6100" d="M139.851 310.255c31.113 35.174 28.679 91.128 25.5 116.989a16.433 16.433 0 0 1-16.325 14.44c-26.055-.001-81.889-4.416-113.002-39.59s-28.68-91.127-25.5-116.988a16.433 16.433 0 0 1 16.325-14.44c26.056.001 81.89 4.415 113.002 39.589z"/><g style="opacity:.29"><path style="fill:#663a00" d="M159.927 437.559a16.412 16.412 0 0 1-10.9 4.124c-26.055-.001-81.889-4.416-113.002-39.59s-28.68-91.127-25.5-116.988a16.414 16.414 0 0 1 6.122-10.899l143.28 163.353z"/></g><path style="fill:#ddb200" d="M152.03 93.86h207.09v15.359H152.03z"/><circle style="fill:#4bcdb2" cx="421.71" cy="360.2" r="83.63"/><g style="opacity:.24"><path style="fill:#5d5d5d" d="M481.326 301.549c32.659 32.659 32.659 85.61 0 118.269s-85.61 32.659-118.269 0l118.269-118.269z"/></g><path style="fill:#eebf00" d="M152.03 93.86h103.14v15.359H152.03z"/><path style="fill:#328777" d="M227.1 232.6h56.12v23.23H227.1z"/><path style="fill:#663a00" d="M26.848 270.666a16.434 16.434 0 0 0-16.325 14.44c-1.393 11.327-2.641 28.427-.992 47.026l64.111-56.709c-18.256-3.909-35.381-4.757-46.794-4.757zM102.231 436.928c18.258 3.907 35.383 4.755 46.794 4.756 8.317 0 15.31-6.186 16.325-14.44 1.393-11.327 2.642-28.427.992-47.025l-64.111 56.709z"/><path style="fill:#50000f" d="m105.115 385.61 7.32 8.276a7.657 7.657 0 0 0 5.755 2.592 7.68 7.68 0 0 0 5.749-12.768l-7.319-8.275 7.724-6.833a7.68 7.68 0 0 0-10.176-11.505l-7.725 6.833-6.884-7.782 7.724-6.832a7.68 7.68 0 0 0 .664-10.841 7.679 7.679 0 0 0-10.84-.664l-7.725 6.833-6.884-7.783 7.724-6.832a7.68 7.68 0 0 0 .664-10.841 7.679 7.679 0 0 0-10.84-.664l-7.725 6.833L65 317.084a7.679 7.679 0 0 0-10.84-.664 7.68 7.68 0 0 0-.664 10.841l7.319 8.275-9.287 8.215a7.68 7.68 0 0 0 5.091 13.433 7.652 7.652 0 0 0 5.085-1.927l9.287-8.215 6.884 7.783-9.287 8.215a7.68 7.68 0 0 0 5.091 13.433 7.652 7.652 0 0 0 5.085-1.927l9.287-8.215 6.884 7.783-9.287 8.214a7.68 7.68 0 0 0 5.091 13.433 7.652 7.652 0 0 0 5.085-1.927l9.291-8.224zM240.02 192.922a3.44 3.44 0 0 1 .988 2.995l-1.657 10.356c-.448 2.802 2.517 4.923 5.084 3.638l9.489-4.752a3.577 3.577 0 0 1 3.198 0l9.489 4.752c2.567 1.285 5.532-.837 5.084-3.638l-1.657-10.356a3.44 3.44 0 0 1 .988-2.995l7.521-7.42c2.035-2.007.902-5.44-1.941-5.886l-10.513-1.649a3.527 3.527 0 0 1-2.588-1.851l-4.841-9.337c-1.31-2.526-4.974-2.526-6.284 0l-4.84 9.337a3.527 3.527 0 0 1-2.588 1.851l-10.513 1.649c-2.845.446-3.977 3.879-1.941 5.886l7.522 7.42z"/><path style="fill:#50000f" d="m311.722 404.481-15.981.058h-.025c-3.513 0-6.378-2.755-6.39-6.153l-.201-54.955c20.15-6.12 37.987-18.018 51.617-34.435 11.374-13.7 19.133-29.75 22.785-46.922 36.254-2.993 64.845-33.433 64.845-70.445 0-36.393-27.639-66.443-63.029-70.284V79.14c0-9.633-7.905-17.47-17.62-17.47H160.686c-9.715 0-17.62 7.836-17.62 17.47v42.204c-35.389 3.841-63.029 33.891-63.029 70.284 0 37.012 28.591 67.453 64.845 70.445 3.652 17.173 11.412 33.222 22.785 46.922 13.63 16.417 31.466 28.315 51.617 34.435l-.201 54.954c-.013 3.398-2.878 6.154-6.39 6.154h-.025l-15.981-.058h-.079c-11.509 0-20.895 9.252-20.938 20.66-.021 5.548 2.156 10.774 6.13 14.718a20.908 20.908 0 0 0 14.732 6.098l54.062.199h14.201v-.026l47.082-.173a20.905 20.905 0 0 0 14.732-6.098c3.974-3.943 6.152-9.17 6.13-14.718-.043-11.434-9.45-20.688-21.017-20.659zm53.62-242.683c13.279 3.421 23.119 15.497 23.119 29.829s-9.84 26.408-23.119 29.829v-59.658zm47.67 29.829c0 27.913-20.774 51.052-47.67 54.804v-9.297c21.808-3.669 38.478-22.672 38.478-45.506s-16.671-41.838-38.478-45.506v-9.297c26.896 3.75 47.67 26.89 47.67 54.802zM160.686 77.029h187.037c1.247 0 2.261.947 2.261 2.11v13.539H158.425V79.14c0-1.164 1.013-2.111 2.261-2.111zm-17.62 144.427c-13.279-3.421-23.119-15.497-23.119-29.829s9.84-26.409 23.119-29.829v59.658zm-47.67-29.829c0-27.913 20.774-51.052 47.67-54.804v9.297c-21.808 3.669-38.478 22.672-38.478 45.506s16.671 41.838 38.478 45.506v9.297c-26.897-3.75-47.67-26.889-47.67-54.802zM315.79 428.956a5.629 5.629 0 0 1-3.969 1.642l-54.034.199h-7.166l-54.035-.199a5.629 5.629 0 0 1-3.969-1.642c-1.031-1.023-1.595-2.356-1.59-3.756.011-2.909 2.564-5.358 5.581-5.358h.021l15.981.058h.082c11.955-.001 21.704-9.609 21.749-21.457l.203-55.569c.025-6.405-4.263-12.161-10.427-13.997-35.287-10.513-61.682-42.261-65.794-79.08v-141.76h191.558v141.76c-4.112 36.818-30.507 68.567-65.794 79.08-6.164 1.836-10.451 7.593-10.427 13.995l.203 55.572c.045 11.848 9.793 21.456 21.749 21.456h.082l15.981-.058h.021c3.016 0 5.569 2.449 5.581 5.358.008 1.4-.557 2.733-1.587 3.756z"/><path style="fill:#50000f" d="M284.426 311.502c3.419-2.077 5.46-5.696 5.46-9.683v-69.237c12.599-10.123 20.687-25.519 20.753-42.765.056-14.821-5.745-28.77-16.336-39.278-10.56-10.476-24.62-16.277-39.593-16.332h-.212c-30.856 0-56.019 24.718-56.135 55.195-.056 14.821 5.745 28.77 16.335 39.278a56.442 56.442 0 0 0 3.705 3.352v69.786c0 3.986 2.041 7.606 5.461 9.684a11.364 11.364 0 0 0 11.218.375l19.063-9.903 19.063 9.903a11.438 11.438 0 0 0 5.283 1.301c2.052-.001 4.1-.562 5.935-1.676zm-70.705-122.043c.084-22.03 18.361-39.894 40.777-39.894h.155c10.914.04 21.153 4.258 28.83 11.876 7.647 7.586 11.836 17.643 11.796 28.316-.084 22.03-18.36 39.894-40.776 39.894h-.156c-10.914-.04-21.154-4.258-28.831-11.876-7.647-7.586-11.836-17.641-11.795-28.316zm45.701 97.948a11.464 11.464 0 0 0-10.555-.001l-15.106 7.848v-54.146a56.727 56.727 0 0 0 20.53 3.903h.212a56.452 56.452 0 0 0 20.023-3.659v53.901l-15.104-7.846zM25.825 261.804c-12.168 0-22.463 9.107-23.948 21.182-3.711 30.19-5.09 86.318 27.37 123.015 32.46 36.696 88.336 42.178 118.755 42.181 12.168 0 22.463-9.107 23.948-21.183 3.711-30.191 5.09-86.318-27.37-123.014-32.462-36.697-88.337-42.18-118.755-42.181zm-8.702 23.058a8.778 8.778 0 0 1 8.703-7.698c7.165 0 17.699.376 29.673 1.969l-40.043 35.419a228.273 228.273 0 0 1 1.667-29.69zm23.63 110.963c-15.271-17.264-21.788-40.391-24.152-61.781l58.104-51.396c20.941 4.958 43.099 14.248 58.37 31.513h.001c15.271 17.264 21.788 40.391 24.152 61.78l-58.104 51.396c-20.942-4.957-43.1-14.247-58.371-31.512zm115.952 29.3a8.778 8.778 0 0 1-8.703 7.698c-7.165 0-17.7-.376-29.673-1.969l40.044-35.42a228.799 228.799 0 0 1-1.668 29.691zM420.692 267.713c-50.349 0-91.31 40.961-91.31 91.309s40.961 91.309 91.31 91.309c50.348 0 91.309-40.961 91.309-91.309-.001-50.348-40.962-91.309-91.309-91.309zm29.072 161.463-24.558-17.843a7.677 7.677 0 0 0-9.027 0l-24.559 17.843c-19.244-8.004-34.503-23.703-41.933-43.236l16.278-22.404a7.677 7.677 0 0 0 0-9.027l-16.278-22.404c7.55-19.848 23.188-35.727 42.873-43.607l23.619 17.16c1.345.978 2.93 1.466 4.514 1.466s3.168-.489 4.514-1.467l23.618-17.16c19.369 7.754 34.816 23.256 42.499 42.661l-16.966 23.351a7.677 7.677 0 0 0 0 9.027l16.966 23.351c-7.56 19.091-22.629 34.414-41.56 42.289z"/><path style="fill:#50000f" d="m450.493 344.078-25.287-18.373a7.677 7.677 0 0 0-9.027 0l-25.288 18.373a7.68 7.68 0 0 0-2.79 8.587l9.66 29.728a7.68 7.68 0 0 0 7.304 5.306h2.222c.498.074 1.004.116 1.517.116h25.828c.514 0 1.02-.043 1.517-.116h.175c3.105 0 5.858-1.878 7.051-4.698.456-.72.83-1.501 1.103-2.339l7.981-24.564c.249-.766.4-1.545.467-2.323l.361-1.111a7.686 7.686 0 0 0-2.794-8.586z"/></svg>